<?xml version="1.0" encoding="UTF-8" standalone="no"?>
<!-- Created with Inkscape (http://www.inkscape.org/) -->
<svg width="128" height="128" viewBox="0 0 3.78213 3.78283" version="1.1" id="svg1" xmlns="http://www.w3.org/2000/svg" xmlns:svg="http://www.w3.org/2000/svg">
  <defs id="defs1">
    <radialGradient fx="0" fy="0" cx="0" cy="0" r="1" gradientUnits="userSpaceOnUse" gradientTransform="matrix(2.3250877,0,0,2.3250877,105.64724,129.83086)" spreadMethod="pad" id="radialGradient366">
      <stop style="stop-opacity:1;stop-color:#999999;" offset="0" id="stop365"/>
      <stop style="stop-opacity:1;stop-color:#e6e6e6;" offset="1" id="stop366"/>
    </radialGradient>
  </defs>
  <g id="layer1" transform="translate(-103.98125,-127.52916)">
    <path id="path366" d="m 107.67766,129.4204 c 0,-0.47272 -0.19368,-0.94262 -0.52882,-1.27705 -0.33373,-0.33373 -0.80363,-0.52846 -1.27635,-0.52846 -0.47272,0 -0.94227,0.19473 -1.27635,0.52846 -0.33478,0.33443 -0.52916,0.80433 -0.52916,1.27705 0,0.47273 0.19438,0.94227 0.52916,1.27706 0.33408,0.33373 0.80363,0.52881 1.27635,0.52881 0.47272,0 0.94262,-0.19508 1.27635,-0.52881 0.33514,-0.33479 0.52882,-0.80433 0.52882,-1.27706" style="fill:url(#radialGradient366);stroke:#000000;stroke-width:0.17145;stroke-linecap:round;stroke-linejoin:round;stroke-miterlimit:4;stroke-dasharray:none;stroke-opacity:1"/>
    <path id="path403" d="m 105.46927,128.65876 -0.40922,1.76177 h 0.34572 l 0.0635,-0.29669 h 0.35207 l 0.066,0.29669 h 0.37183 l -0.42263,-1.76177 z m 0.30127,1.18992 h -0.24483 l 0.0741,-0.4699 0.0374,-0.26635 h 0.005 l 0.0399,0.26635 0.0885,0.4699" style="fill:#000000;fill-opacity:1;fill-rule:nonzero;stroke:none;stroke-width:0.352778"/>
  </g>
</svg>