<?xml version="1.0" encoding="UTF-8" standalone="no"?>
<!-- Created with Inkscape (http://www.inkscape.org/) -->
<svg width="128" height="128" viewBox="0 0 7.0861702 7.0862098" version="1.1" id="svg1" xmlns="http://www.w3.org/2000/svg" xmlns:svg="http://www.w3.org/2000/svg">
  <defs id="defs1">
    <radialGradient fx="0" fy="0" cx="0" cy="0" r="1" gradientUnits="userSpaceOnUse" gradientTransform="matrix(3.6885031,0,0,3.6885031,112.28684,120.25161)" spreadMethod="pad" id="radialGradient382">
      <stop style="stop-opacity:1;stop-color:#999999;" offset="0" id="stop381"/>
      <stop style="stop-opacity:1;stop-color:#e6e6e6;" offset="1" id="stop382"/>
    </radialGradient>
    <radialGradient fx="0" fy="0" cx="0" cy="0" r="1" gradientUnits="userSpaceOnUse" gradientTransform="matrix(0.95186495,0,0,0.95186495,114.21978,119.85675)" spreadMethod="pad" id="radialGradient384">
      <stop style="stop-opacity:1;stop-color:#999999;" offset="0" id="stop383"/>
      <stop style="stop-opacity:1;stop-color:#e6e6e6;" offset="1" id="stop384"/>
    </radialGradient>
    <radialGradient fx="0" fy="0" cx="0" cy="0" r="1" gradientUnits="userSpaceOnUse" gradientTransform="matrix(1.1397897,0,0,1.1397897,109.82734,120.06891)" spreadMethod="pad" id="radialGradient386">
      <stop style="stop-opacity:1;stop-color:#999999;" offset="0" id="stop385"/>
      <stop style="stop-opacity:1;stop-color:#e6e6e6;" offset="1" id="stop386"/>
    </radialGradient>
    <radialGradient fx="0" fy="0" cx="0" cy="0" r="1" gradientUnits="userSpaceOnUse" gradientTransform="matrix(1.0591094,0,0,1.0591094,111.88749,122.0676)" spreadMethod="pad" id="radialGradient388">
      <stop style="stop-opacity:1;stop-color:#999999;" offset="0" id="stop387"/>
      <stop style="stop-opacity:1;stop-color:#e6e6e6;" offset="1" id="stop388"/>
    </radialGradient>
    <radialGradient fx="0" fy="0" cx="0" cy="0" r="1" gradientUnits="userSpaceOnUse" gradientTransform="matrix(1.0161763,0,0,1.0161763,112.13034,117.76618)" spreadMethod="pad" id="radialGradient390">
      <stop style="stop-opacity:1;stop-color:#999999;" offset="0" id="stop389"/>
      <stop style="stop-opacity:1;stop-color:#e6e6e6;" offset="1" id="stop390"/>
    </radialGradient>
    <radialGradient fx="0" fy="0" cx="0" cy="0" r="1" gradientUnits="userSpaceOnUse" gradientTransform="matrix(1.0907888,0,0,1.0907888,112.16149,120.03941)" spreadMethod="pad" id="radialGradient392">
      <stop style="stop-opacity:1;stop-color:#999999;" offset="0" id="stop391"/>
      <stop style="stop-opacity:1;stop-color:#e6e6e6;" offset="1" id="stop392"/>
    </radialGradient>
  </defs>
  <g id="layer1" transform="translate(-108.74382,-116.68124)">
    <path id="path382" d="m 113.63148,121.37708 c -0.0504,0 -0.10019,0.0201 -0.13582,0.0557 -0.0356,0.0356 -0.0564,0.0861 -0.0564,0.13617 v 1.72896 c 0,0.0998 -0.0413,0.20003 -0.11218,0.27094 -0.0716,0.0716 -0.17145,0.11288 -0.272,0.11288 h -1.5367 c -0.10054,0 -0.20037,-0.0413 -0.27163,-0.11288 -0.0709,-0.0709 -0.11219,-0.1711 -0.11219,-0.27094 v -1.72896 c 0,-0.0501 -0.0208,-0.10054 -0.0564,-0.13617 -0.0356,-0.0356 -0.0857,-0.0557 -0.13582,-0.0557 h -1.72897 c -0.10054,0 -0.20037,-0.0416 -0.27128,-0.11254 -0.0713,-0.0713 -0.11254,-0.17145 -0.11254,-0.27199 v -1.5367 c 0,-0.10054 0.0413,-0.20073 0.11254,-0.27164 0.0709,-0.0713 0.17074,-0.11254 0.27128,-0.11254 h 1.72897 c 0.0501,0 0.10019,-0.0205 0.13582,-0.0561 0.0356,-0.0353 0.0564,-0.0857 0.0564,-0.13617 v -1.72861 c 0,-0.10019 0.0413,-0.20003 0.11219,-0.27129 0.0713,-0.0713 0.17109,-0.11253 0.27163,-0.11253 h 1.5367 c 0.10055,0 0.20038,0.0413 0.272,0.11253 0.0709,0.0713 0.11218,0.1711 0.11218,0.27129 v 1.72861 c 0,0.0505 0.0208,0.10089 0.0564,0.13617 0.0356,0.0356 0.0854,0.0561 0.13582,0.0561 h 1.72861 c 0.10055,0 0.20073,0.0413 0.27164,0.11254 0.0713,0.0709 0.11254,0.1711 0.11254,0.27164 v 1.5367 c 0,0.10054 -0.0413,0.20073 -0.11254,0.27199 -0.0709,0.0709 -0.17109,0.11254 -0.27164,0.11254 h -1.72861" style="fill:url(#radialGradient382);stroke:none;stroke-width:0.352778"/>
    <path id="path383" d="m 113.63148,121.37708 c -0.0504,0 -0.10019,0.0201 -0.13582,0.0557 -0.0356,0.0356 -0.0564,0.0861 -0.0564,0.13617 v 1.72896 c 0,0.0998 -0.0413,0.20003 -0.11218,0.27094 -0.0716,0.0716 -0.17145,0.11288 -0.272,0.11288 h -1.5367 c -0.10054,0 -0.20037,-0.0413 -0.27163,-0.11288 -0.0709,-0.0709 -0.11219,-0.1711 -0.11219,-0.27094 v -1.72896 c 0,-0.0501 -0.0208,-0.10054 -0.0564,-0.13617 -0.0356,-0.0356 -0.0857,-0.0557 -0.13582,-0.0557 h -1.72897 c -0.10054,0 -0.20037,-0.0416 -0.27128,-0.11254 -0.0713,-0.0713 -0.11254,-0.17145 -0.11254,-0.27199 v -1.5367 c 0,-0.10054 0.0413,-0.20073 0.11254,-0.27164 0.0709,-0.0713 0.17074,-0.11254 0.27128,-0.11254 h 1.72897 c 0.0501,0 0.10019,-0.0205 0.13582,-0.0561 0.0356,-0.0353 0.0564,-0.0857 0.0564,-0.13617 v -1.72861 c 0,-0.10019 0.0413,-0.20003 0.11219,-0.27129 0.0713,-0.0713 0.17109,-0.11253 0.27163,-0.11253 h 1.5367 c 0.10055,0 0.20038,0.0413 0.272,0.11253 0.0709,0.0713 0.11218,0.1711 0.11218,0.27129 v 1.72861 c 0,0.0505 0.0208,0.10089 0.0564,0.13617 0.0356,0.0356 0.0854,0.0561 0.13582,0.0561 h 1.72861 c 0.10055,0 0.20073,0.0413 0.27164,0.11254 0.0713,0.0709 0.11254,0.1711 0.11254,0.27164 v 1.5367 c 0,0.10054 -0.0413,0.20073 -0.11254,0.27199 -0.0709,0.0709 -0.17109,0.11254 -0.27164,0.11254 z" style="fill:none;stroke:#000000;stroke-width:0.17145;stroke-linecap:round;stroke-linejoin:round;stroke-miterlimit:4;stroke-dasharray:none;stroke-opacity:1"/>
    <path id="path384" d="m 114.01566,120.72655 v -1.00471 c 0,-0.0261 0.009,-0.0529 0.0258,-0.0727 0.0162,-0.0208 0.0399,-0.0353 0.0656,-0.0402 0.0258,-0.006 0.0533,-0.001 0.0766,0.01 l 0.97719,0.50271 c 0.0251,0.0127 0.0452,0.0356 0.055,0.061 0.01,0.0268 0.01,0.0568 0,0.0833 -0.01,0.0258 -0.03,0.0483 -0.055,0.0607 l -0.97719,0.50307 c -0.0233,0.0116 -0.0508,0.0159 -0.0766,0.0102 -0.0258,-0.006 -0.0494,-0.0198 -0.0656,-0.0406 -0.0166,-0.0198 -0.0258,-0.0462 -0.0258,-0.0727" style="fill:url(#radialGradient384);stroke:none;stroke-width:0.352778"/>
    <path id="path385" d="m 114.01566,120.72655 v -1.00471 c 0,-0.0261 0.009,-0.0529 0.0258,-0.0727 0.0162,-0.0208 0.0399,-0.0353 0.0656,-0.0402 0.0258,-0.006 0.0533,-0.001 0.0766,0.01 l 0.97719,0.50271 c 0.0251,0.0127 0.0452,0.0356 0.055,0.061 0.01,0.0268 0.01,0.0568 0,0.0833 -0.01,0.0258 -0.03,0.0483 -0.055,0.0607 l -0.97719,0.50307 c -0.0233,0.0116 -0.0508,0.0159 -0.0766,0.0102 -0.0258,-0.006 -0.0494,-0.0198 -0.0656,-0.0406 -0.0166,-0.0198 -0.0258,-0.0462 -0.0258,-0.0727 z" style="fill:none;stroke:#000000;stroke-width:0.137231;stroke-linecap:butt;stroke-linejoin:miter;stroke-miterlimit:4;stroke-dasharray:none;stroke-opacity:1"/>
    <path id="path386" d="m 109.41261,120.12154 0.97755,-0.50271 c 0.0233,-0.0113 0.0508,-0.0155 0.0766,-0.01 0.0254,0.005 0.049,0.0194 0.0656,0.0402 0.0166,0.0198 0.0258,0.0466 0.0258,0.0727 v 1.00471 c 0,0.0265 -0.009,0.0529 -0.0258,0.0727 -0.0166,0.0208 -0.0402,0.0349 -0.0656,0.0406 -0.0258,0.006 -0.0533,10e-4 -0.0766,-0.0102 l -0.97755,-0.50307 c -0.0247,-0.0123 -0.0448,-0.0349 -0.0547,-0.0607 -0.0102,-0.0265 -0.0102,-0.0564 0,-0.0833 0.01,-0.0254 0.03,-0.0483 0.0547,-0.061" style="fill:url(#radialGradient386);stroke:none;stroke-width:0.352778"/>
    <path id="path387" d="m 109.41261,120.12154 0.97755,-0.50271 c 0.0233,-0.0113 0.0508,-0.0155 0.0766,-0.01 0.0254,0.005 0.049,0.0194 0.0656,0.0402 0.0166,0.0198 0.0258,0.0466 0.0258,0.0727 v 1.00471 c 0,0.0265 -0.009,0.0529 -0.0258,0.0727 -0.0166,0.0208 -0.0402,0.0349 -0.0656,0.0406 -0.0258,0.006 -0.0533,10e-4 -0.0766,-0.0102 l -0.97755,-0.50307 c -0.0247,-0.0123 -0.0448,-0.0349 -0.0547,-0.0607 -0.0102,-0.0265 -0.0102,-0.0564 0,-0.0833 0.01,-0.0254 0.03,-0.0483 0.0547,-0.061 z" style="fill:none;stroke:#000000;stroke-width:0.137231;stroke-linecap:butt;stroke-linejoin:miter;stroke-miterlimit:4;stroke-dasharray:none;stroke-opacity:1"/>
    <path id="path388" d="m 111.68168,122.12109 c -0.012,-0.0236 -0.0155,-0.0512 -0.0102,-0.0766 0.005,-0.0257 0.0198,-0.0494 0.0399,-0.0656 0.0205,-0.0166 0.0466,-0.0258 0.073,-0.0258 h 1.00542 c 0.0261,0 0.0519,0.009 0.0723,0.0258 0.0205,0.0162 0.0349,0.0399 0.0402,0.0656 0.005,0.0254 0.002,0.0529 -0.0102,0.0766 l -0.50271,0.97719 c -0.0127,0.025 -0.0353,0.0448 -0.0614,0.055 -0.0261,0.0102 -0.0561,0.0102 -0.0825,0 -0.0261,-0.0102 -0.0483,-0.03 -0.061,-0.055 l -0.50271,-0.97719" style="fill:url(#radialGradient388);stroke:none;stroke-width:0.352778"/>
    <path id="path389" d="m 111.68168,122.12109 c -0.012,-0.0236 -0.0155,-0.0512 -0.0102,-0.0766 0.005,-0.0257 0.0198,-0.0494 0.0399,-0.0656 0.0205,-0.0166 0.0466,-0.0258 0.073,-0.0258 h 1.00542 c 0.0261,0 0.0519,0.009 0.0723,0.0258 0.0205,0.0162 0.0349,0.0399 0.0402,0.0656 0.005,0.0254 0.002,0.0529 -0.0102,0.0766 l -0.50271,0.97719 c -0.0127,0.025 -0.0353,0.0448 -0.0614,0.055 -0.0261,0.0102 -0.0561,0.0102 -0.0825,0 -0.0261,-0.0102 -0.0483,-0.03 -0.061,-0.055 z" style="fill:none;stroke:#000000;stroke-width:0.137231;stroke-linecap:butt;stroke-linejoin:miter;stroke-miterlimit:4;stroke-dasharray:none;stroke-opacity:1"/>
    <path id="path390" d="m 112.18439,117.35047 c 0.0127,-0.0251 0.0349,-0.0452 0.061,-0.0554 0.0265,-0.0102 0.0564,-0.0102 0.0825,0 0.0261,0.0102 0.0487,0.0303 0.0614,0.0554 l 0.50271,0.97684 c 0.012,0.0233 0.0155,0.0512 0.0102,0.0769 -0.005,0.0251 -0.0197,0.049 -0.0402,0.0656 -0.0205,0.0166 -0.0462,0.0258 -0.0723,0.0258 h -1.00542 c -0.0265,0 -0.0526,-0.009 -0.073,-0.0258 -0.0201,-0.0166 -0.0346,-0.0406 -0.0399,-0.0656 -0.005,-0.0258 -0.002,-0.0536 0.0102,-0.0769 l 0.50271,-0.97684" style="fill:url(#radialGradient390);stroke:none;stroke-width:0.352778"/>
    <path id="path391" d="m 112.18439,117.35047 c 0.0127,-0.0251 0.0349,-0.0452 0.061,-0.0554 0.0265,-0.0102 0.0564,-0.0102 0.0825,0 0.0261,0.0102 0.0487,0.0303 0.0614,0.0554 l 0.50271,0.97684 c 0.012,0.0233 0.0155,0.0512 0.0102,0.0769 -0.005,0.0251 -0.0197,0.049 -0.0402,0.0656 -0.0205,0.0166 -0.0462,0.0258 -0.0723,0.0258 h -1.00542 c -0.0265,0 -0.0526,-0.009 -0.073,-0.0258 -0.0201,-0.0166 -0.0346,-0.0406 -0.0399,-0.0656 -0.005,-0.0258 -0.002,-0.0536 0.0102,-0.0769 z" style="fill:none;stroke:#000000;stroke-width:0.137231;stroke-linecap:butt;stroke-linejoin:miter;stroke-miterlimit:4;stroke-dasharray:none;stroke-opacity:1"/>
    <path id="path392" d="m 113.05504,120.22455 c 0,-0.20108 -0.0826,-0.40146 -0.22507,-0.54328 -0.14217,-0.14217 -0.34184,-0.22542 -0.54328,-0.22542 -0.20108,0 -0.40075,0.0833 -0.54327,0.22542 -0.14217,0.14182 -0.22508,0.3422 -0.22508,0.54328 0,0.20073 0.0829,0.40076 0.22508,0.54293 0.14252,0.14252 0.34219,0.22507 0.54327,0.22507 0.20144,0 0.40111,-0.0825 0.54328,-0.22507 0.14252,-0.14217 0.22507,-0.3422 0.22507,-0.54293" style="fill:url(#radialGradient392);stroke:#000000;stroke-width:0.137231;stroke-linecap:butt;stroke-linejoin:miter;stroke-miterlimit:4;stroke-dasharray:none;stroke-opacity:1"/>
  </g>
</svg>