<?xml version="1.0" encoding="UTF-8" standalone="no"?>
<!-- Created with Inkscape (http://www.inkscape.org/) -->
<svg width="128" height="128" viewBox="0 0 5.123744 4.9314804" version="1.1" id="svg1" xmlns="http://www.w3.org/2000/svg" xmlns:svg="http://www.w3.org/2000/svg">
  <defs id="defs1">
    <clipPath clipPathUnits="userSpaceOnUse" id="clipPath2099">
      <path d="M 0,0 H 651.969 V 510.235 H 0 Z" transform="translate(-413.96701,-359.16751)" id="path2099"/>
    </clipPath>
  </defs>
  <g id="layer1" transform="translate(-116.15206,-124.88333)">
    <path id="path2097" d="m 117.21712,125.00659 -0.43886,0.31891 -0.51787,3.8541 0.38523,0.4378 h 3.66712 l 0.45262,-0.37183 0.31891,-3.81353 -0.39899,-0.39864 z" style="fill:#ffffff;fill-opacity:1;fill-rule:nonzero;stroke:none;stroke-width:0.352778"/>
    <path id="path2098" d="m 0,0 -0.017,0.012 -0.015,0.011 c -0.342,0.245 -0.816,0.386 -1.302,0.386 h -9.107 c -0.617,0 -1.08,-0.128 -1.416,-0.388 -0.394,-0.309 -0.533,-0.717 -0.609,-1.038 l -0.013,-0.049 -0.007,-0.051 c -0.065,-0.481 -1.3,-10.101 -1.351,-10.511 l -0.009,-0.063 v -0.066 c 0,-0.45 0.138,-0.847 0.412,-1.18 0.36,-0.425 0.802,-0.622 1.398,-0.633 h 9.93 c 1.046,0.018 1.825,0.735 1.917,1.741 0.087,1.132 0.767,9.267 0.854,10.149 0.009,0.096 0.013,0.177 0.013,0.251 C 0.66,-0.787 0.452,-0.354 0,0 m -0.337,-1.58 c -0.092,-0.913 -0.779,-9.156 -0.856,-10.16 -0.045,-0.483 -0.4,-0.813 -0.913,-0.822 h -9.912 c -0.36,0.008 -0.514,0.12 -0.639,0.267 -0.125,0.15 -0.183,0.321 -0.183,0.538 0,0 1.288,10.02 1.355,10.504 0.063,0.27 0.141,0.395 0.247,0.479 0.111,0.085 0.335,0.174 0.797,0.174 h 9.107 c 0.257,0 0.539,-0.071 0.714,-0.195 0.171,-0.135 0.279,-0.271 0.289,-0.634 0,-0.045 -0.002,-0.095 -0.006,-0.151 m -7.307,-1.332 h -1.034 v -7.607 h 4.526 v 0.967 h -3.492 z" style="fill:#000000;fill-opacity:1;fill-rule:nonzero;stroke:none" transform="matrix(0.35277776,0,0,-0.35277776,121.03662,125.02762)" clip-path="url(#clipPath2099)"/>
  </g>
</svg>