<?xml version="1.0" encoding="UTF-8" standalone="no"?>
<!-- Created with Inkscape (http://www.inkscape.org/) -->
<svg width="128" height="128" viewBox="0 0 5.1321416 4.9312549" version="1.1" id="svg1" xmlns="http://www.w3.org/2000/svg" xmlns:svg="http://www.w3.org/2000/svg">
  <defs id="defs1">
    <clipPath clipPathUnits="userSpaceOnUse" id="clipPath2111">
      <path d="M 0,0 H 651.969 V 510.235 H 0 Z" transform="translate(-515.58721,-347.65081)" id="path2111"/>
    </clipPath>
  </defs>
  <g id="layer1" transform="translate(-109.80207,-119.59167)">
    <path id="path2109" d="m 109.80207,119.99719 0.51858,-0.37536 3.70241,0.0176 0.41133,0.30445 0.46567,3.97087 -0.26811,0.53657 -4.13279,0.0716 -0.35772,-0.39335 z" style="fill:#ffffff;fill-opacity:1;fill-rule:nonzero;stroke:none;stroke-width:0.352778"/>
    <path id="path2110" d="m 0,0 c -0.165,1.201 -0.747,5.752 -1.094,8.47 -0.135,1.045 -0.23,1.793 -0.248,1.928 L -1.35,10.45 -1.362,10.5 c -0.071,0.295 -0.211,0.723 -0.606,1.034 -0.337,0.263 -0.8,0.391 -1.421,0.391 h -9.1 c -0.488,0 -0.963,-0.14 -1.303,-0.386 l -0.015,-0.01 -0.013,-0.012 c -0.455,-0.351 -0.665,-0.785 -0.681,-1.403 0,-0.104 0.006,-0.193 0.015,-0.291 0.091,-0.908 0.778,-9.157 0.852,-10.119 0.091,-1.016 0.871,-1.733 1.898,-1.751 h 9.924 c 0.616,0.012 1.056,0.208 1.407,0.62 C -0.145,-1.108 0.085,-0.536 0,0 m -1.172,-0.773 c -0.126,-0.148 -0.279,-0.259 -0.64,-0.266 h -9.906 c -0.512,0.01 -0.867,0.339 -0.91,0.822 -0.079,1.003 -0.768,9.242 -0.855,10.155 -0.007,0.055 -0.008,0.106 -0.008,0.15 0.008,0.364 0.117,0.5 0.29,0.635 0.172,0.124 0.455,0.194 0.712,0.194 h 9.1 c 0.464,0 0.69,-0.088 0.797,-0.175 0.109,-0.082 0.186,-0.207 0.251,-0.477 0.064,-0.484 1.112,-8.721 1.346,-10.42 0.033,-0.201 -0.069,-0.487 -0.177,-0.618 m -3.456,7.314 c 0,0.965 -0.5,2.148 -2.465,2.148 H -9.799 V 1.003 h 1.043 v 3.389 h 1.165 L -5.64,1.003 h 1.304 l -2.185,3.506 c 1.165,0.131 1.893,1.056 1.893,2.032 M -8.756,5.302 v 2.474 h 1.366 c 0.829,0 1.654,-0.193 1.654,-1.235 0,-1.042 -0.825,-1.239 -1.654,-1.239 z" style="fill:#000000;fill-opacity:1;fill-rule:nonzero;stroke:none" transform="matrix(0.35277776,0,0,-0.35277776,114.92787,123.79854)" clip-path="url(#clipPath2111)"/>
  </g>
</svg>