<?xml version="1.0" encoding="UTF-8" standalone="no"?>
<!-- Created with Inkscape (http://www.inkscape.org/) -->
<svg width="128" height="128" viewBox="0 0 6.2828417 3.2259443" version="1.1" id="svg1" xmlns="http://www.w3.org/2000/svg" xmlns:svg="http://www.w3.org/2000/svg">
  <defs id="defs1">
    <radialGradient fx="0" fy="0" cx="0" cy="0" r="1" gradientUnits="userSpaceOnUse" gradientTransform="matrix(1.2852752,0,0,1.2852752,108.63958,138.89536)" spreadMethod="pad" id="radialGradient370">
      <stop style="stop-opacity:1;stop-color:#999999;" offset="0" id="stop369"/>
      <stop style="stop-opacity:1;stop-color:#e6e6e6;" offset="1" id="stop370"/>
    </radialGradient>
  </defs>
  <g id="layer1" transform="translate(-103.71668,-137.05418)">
    <path id="path360" d="m 109.14515,138.16818 -4.07211,-1.0153 c -0.26353,-0.0656 -0.55245,-0.0222 -0.78529,0.11783 -0.23283,0.13935 -0.4064,0.37465 -0.47237,0.63747 -0.0656,0.26423 -0.0222,0.5528 0.11748,0.78563 0.14005,0.23284 0.37465,0.4064 0.63817,0.47237 l 4.07212,1.01495 c 0.26352,0.066 0.55245,0.0226 0.78528,-0.11677 0.23248,-0.14006 0.4064,-0.37465 0.47237,-0.63888 0.0656,-0.26318 0.0222,-0.5521 -0.11747,-0.78494 -0.14006,-0.23248 -0.37465,-0.4064 -0.63818,-0.47236" style="fill:#cccccc;fill-opacity:1;fill-rule:nonzero;stroke:none;stroke-width:0.352778"/>
    <path id="path361" d="m 109.14515,138.16818 -4.07211,-1.0153 c -0.26353,-0.0656 -0.55245,-0.0222 -0.78529,0.11783 -0.23283,0.13935 -0.4064,0.37465 -0.47237,0.63747 -0.0656,0.26423 -0.0222,0.5528 0.11748,0.78563 0.14005,0.23284 0.37465,0.4064 0.63817,0.47237 l 4.07212,1.01495 c 0.26352,0.066 0.55245,0.0226 0.78528,-0.11677 0.23248,-0.14006 0.4064,-0.37465 0.47237,-0.63888 0.0656,-0.26318 0.0222,-0.5521 -0.11747,-0.78494 -0.14006,-0.23248 -0.37465,-0.4064 -0.63818,-0.47236 z" style="fill:none;stroke:#000000;stroke-width:0.137231;stroke-linecap:butt;stroke-linejoin:miter;stroke-miterlimit:4;stroke-dasharray:none;stroke-opacity:1"/>
    <path id="path370" d="m 109.73923,139.175 c 0,-0.22154 -0.091,-0.44097 -0.2473,-0.5976 -0.15663,-0.15664 -0.37677,-0.24765 -0.5976,-0.24765 -0.22155,0 -0.44133,0.091 -0.59761,0.24765 -0.15663,0.15663 -0.24765,0.37606 -0.24765,0.5976 0,0.22119 0.091,0.44133 0.24765,0.59761 0.15628,0.15663 0.37606,0.24765 0.59761,0.24765 0.22083,0 0.44097,-0.091 0.5976,-0.24765 0.15628,-0.15628 0.2473,-0.37642 0.2473,-0.59761" style="fill:url(#radialGradient370);stroke:#000000;stroke-width:0.17145;stroke-linecap:round;stroke-linejoin:round;stroke-miterlimit:4;stroke-dasharray:none;stroke-opacity:1"/>
    <path id="path410" d="m 105.0688,138.03024 c -0.0286,-0.0395 -0.0656,-0.078 -0.11535,-0.0903 -0.0547,-0.013 -0.0988,0.0109 -0.11254,0.0677 -0.0363,0.14782 0.23319,0.22402 0.17215,0.46955 -0.0388,0.16016 -0.16227,0.25894 -0.3302,0.21696 -0.0497,-0.0127 -0.10865,-0.0438 -0.14287,-0.084 l 0.0434,-0.1704 c 0.0346,0.0395 0.0706,0.0684 0.12418,0.0819 0.0568,0.0141 0.11183,-0.0127 0.12735,-0.073 0.0166,-0.0695 -0.0314,-0.11006 -0.0727,-0.15804 -0.0857,-0.096 -0.133,-0.17886 -0.0998,-0.3108 0.0349,-0.14323 0.14993,-0.24659 0.30233,-0.20849 0.0579,0.0152 0.10584,0.0441 0.14711,0.0847 l -0.043,0.17427" style="fill:#000000;fill-opacity:1;fill-rule:nonzero;stroke:none;stroke-width:0.352778"/>
    <path id="path411" d="m 105.63925,137.95369 -0.0416,0.16862 -0.18168,-0.0452 -0.049,0.19755 0.15946,0.0399 -0.0423,0.16757 -0.15945,-0.0402 -0.0515,0.20708 0.1845,0.0452 -0.0416,0.16862 -0.36442,-0.0914 0.22613,-0.9077 0.3616,0.09" style="fill:#000000;fill-opacity:1;fill-rule:nonzero;stroke:none;stroke-width:0.352778"/>
    <path id="path412" d="m 105.93064,138.02671 -0.18486,0.73978 0.18768,0.0462 -0.0423,0.16863 -0.36689,-0.091 0.22648,-0.9084 0.17992,0.0448" style="fill:#000000;fill-opacity:1;fill-rule:nonzero;stroke:none;stroke-width:0.352778"/>
    <path id="path413" d="m 106.56141,138.18405 -0.042,0.16863 -0.18239,-0.0459 -0.0483,0.19826 0.16016,0.0392 -0.0416,0.16757 -0.16086,-0.0392 -0.0512,0.20602 0.18451,0.0459 -0.0427,0.16828 -0.36266,-0.0907 0.22543,-0.9084 0.3616,0.0903" style="fill:#000000;fill-opacity:1;fill-rule:nonzero;stroke:none;stroke-width:0.352778"/>
    <path id="path414" d="m 107.08387,138.49591 c -0.0219,-0.0123 -0.0423,-0.0215 -0.0649,-0.0265 -0.1584,-0.0392 -0.26282,0.0861 -0.29704,0.22613 -0.0342,0.13476 -0.006,0.31785 0.15028,0.35666 0.0222,0.006 0.0473,0.006 0.0713,0.003 l -0.0416,0.17039 c -0.0296,0.005 -0.0586,0.002 -0.0878,-0.004 -0.2593,-0.0656 -0.34502,-0.33443 -0.2854,-0.57256 0.0557,-0.22542 0.26423,-0.41945 0.508,-0.35807 0.0324,0.008 0.0607,0.0215 0.0878,0.0395 l -0.0406,0.16546" style="fill:#000000;fill-opacity:1;fill-rule:nonzero;stroke:none;stroke-width:0.352778"/>
    <path id="path415" d="m 107.63561,138.45181 -0.0427,0.16898 -0.14288,-0.0367 -0.18415,0.74013 -0.17956,-0.0448 0.1845,-0.73907 -0.14076,-0.0353 0.0416,-0.16863 0.4639,0.11536" style="fill:#000000;fill-opacity:1;fill-rule:nonzero;stroke:none;stroke-width:0.352778"/>
  </g>
</svg>