<?xml version="1.0" encoding="UTF-8" standalone="no"?>
<!-- Created with Inkscape (http://www.inkscape.org/) -->
<svg width="128" height="128" viewBox="0 0 6.2828865 3.2261606" version="1.1" id="svg1" xmlns="http://www.w3.org/2000/svg" xmlns:svg="http://www.w3.org/2000/svg">
  <defs id="defs1">
    <radialGradient fx="0" fy="0" cx="0" cy="0" r="1" gradientUnits="userSpaceOnUse" gradientTransform="matrix(1.2342283,0,0,1.2342283,107.35951,125.34678)" spreadMethod="pad" id="radialGradient368">
      <stop style="stop-opacity:1;stop-color:#999999;" offset="0" id="stop367"/>
      <stop style="stop-opacity:1;stop-color:#e6e6e6;" offset="1" id="stop368"/>
    </radialGradient>
  </defs>
  <g id="layer1" transform="translate(-102.39375,-123.56041)">
    <path id="path362" d="m 103.75014,123.65937 4.07211,1.0153 c 0.26353,0.0656 0.49812,0.23953 0.63818,0.47237 0.1397,0.23283 0.18309,0.52176 0.11747,0.78458 -0.066,0.26387 -0.23989,0.49847 -0.47237,0.63852 -0.23283,0.14006 -0.52176,0.18345 -0.78528,0.11748 l -4.07212,-1.0153 c -0.26352,-0.0656 -0.49812,-0.23953 -0.63817,-0.47237 -0.1397,-0.23248 -0.18309,-0.52175 -0.11748,-0.78493 0.066,-0.26352 0.23954,-0.49847 0.47237,-0.63852 0.23284,-0.1397 0.52176,-0.1831 0.78529,-0.11713" style="fill:#cccccc;fill-opacity:1;fill-rule:nonzero;stroke:none;stroke-width:0.352778"/>
    <path id="path363" d="m 103.75014,123.65937 4.07211,1.0153 c 0.26353,0.0656 0.49812,0.23953 0.63818,0.47237 0.1397,0.23283 0.18309,0.52176 0.11747,0.78458 -0.066,0.26387 -0.23989,0.49847 -0.47237,0.63852 -0.23283,0.14006 -0.52176,0.18345 -0.78528,0.11748 l -4.07212,-1.0153 c -0.26352,-0.0656 -0.49812,-0.23953 -0.63817,-0.47237 -0.1397,-0.23248 -0.18309,-0.52175 -0.11748,-0.78493 0.066,-0.26352 0.23954,-0.49847 0.47237,-0.63852 0.23284,-0.1397 0.52176,-0.1831 0.78529,-0.11713 z" style="fill:none;stroke:#000000;stroke-width:0.137231;stroke-linecap:butt;stroke-linejoin:miter;stroke-miterlimit:4;stroke-dasharray:none;stroke-opacity:1"/>
    <path id="path368" d="m 108.41633,125.68079 c 0,-0.22084 -0.091,-0.44062 -0.2473,-0.59725 -0.15663,-0.15628 -0.37677,-0.248 -0.5976,-0.248 -0.22155,0 -0.44133,0.0917 -0.59761,0.248 -0.15663,0.15663 -0.24765,0.37641 -0.24765,0.59725 0,0.22154 0.091,0.44168 0.24765,0.59761 0.15628,0.15663 0.37606,0.248 0.59761,0.248 0.22083,0 0.44097,-0.0914 0.5976,-0.248 0.15628,-0.15593 0.2473,-0.37607 0.2473,-0.59761" style="fill:url(#radialGradient368);stroke:#000000;stroke-width:0.17145;stroke-linecap:round;stroke-linejoin:round;stroke-miterlimit:4;stroke-dasharray:none;stroke-opacity:1"/>
    <path id="path405" d="m 103.89513,124.52086 c -0.0282,-0.0402 -0.0656,-0.0783 -0.1143,-0.09 -0.0561,-0.0141 -0.0991,0.0109 -0.11289,0.0663 -0.0374,0.14852 0.23354,0.22507 0.17251,0.46955 -0.0406,0.16122 -0.16299,0.25929 -0.33161,0.21766 -0.0501,-0.012 -0.10831,-0.0437 -0.14182,-0.0843 l 0.042,-0.17075 c 0.0349,0.0399 0.0713,0.0688 0.12418,0.0815 0.0586,0.0148 0.11324,-0.012 0.12806,-0.0723 0.0169,-0.0692 -0.0318,-0.10972 -0.073,-0.15805 -0.0857,-0.0956 -0.13229,-0.17815 -0.0991,-0.31044 0.0356,-0.14288 0.14887,-0.2473 0.30233,-0.20779 0.0579,0.0134 0.10619,0.042 0.14746,0.0833 l -0.0437,0.17533" style="fill:#000000;fill-opacity:1;fill-rule:nonzero;stroke:none;stroke-width:0.352778"/>
    <path id="path406" d="m 104.52131,124.45877 -0.0416,0.16757 -0.14146,-0.0356 -0.18592,0.74013 -0.17885,-0.0448 0.18485,-0.74083 -0.14111,-0.0346 0.0416,-0.16793 0.46249,0.11607" style="fill:#000000;fill-opacity:1;fill-rule:nonzero;stroke:none;stroke-width:0.352778"/>
    <path id="path407" d="m 104.69276,124.50075 -0.43709,0.85548 0.1785,0.0444 0.0706,-0.14534 0.18133,0.0466 -0.004,0.16086 0.19155,0.0476 0.008,-0.96308 z m 0.002,0.65193 -0.12595,-0.0307 0.0998,-0.23389 0.0519,-0.13265 0.004,0.002 -0.0141,0.14182 -0.0152,0.25364" style="fill:#000000;fill-opacity:1;fill-rule:nonzero;stroke:none;stroke-width:0.352778"/>
    <path id="path408" d="m 105.12703,125.57319 0.10477,-0.41874 0.002,7e-4 0.054,0.45826 0.18873,0.0473 -0.0547,-0.45226 c 0.10125,-0.0272 0.16228,-0.10266 0.18698,-0.20249 0.0621,-0.24801 -0.13935,-0.31186 -0.25471,-0.34008 l -0.17992,-0.0462 -0.22789,0.90946 z m 0.18909,-0.75988 0.0243,0.006 c 0.0914,0.0173 0.10971,0.0787 0.0949,0.14393 -0.0201,0.0741 -0.0656,0.12171 -0.14852,0.10125 l -0.031,-0.009 0.0603,-0.24236" style="fill:#000000;fill-opacity:1;fill-rule:nonzero;stroke:none;stroke-width:0.352778"/>
    <path id="path409" d="m 106.19912,124.8754 -0.0427,0.16898 -0.14146,-0.036 -0.18521,0.74012 -0.17956,-0.0448 0.18485,-0.73907 -0.14075,-0.0353 0.0413,-0.16898 0.46355,0.11501" style="fill:#000000;fill-opacity:1;fill-rule:nonzero;stroke:none;stroke-width:0.352778"/>
  </g>
</svg>